<?xml version="1.0" encoding="iso-8859-1"?><svg xmlns="http://www.w3.org/2000/svg" xmlns:xlink="http://www.w3.org/1999/xlink"><symbol viewBox="0 0 29.121 29.121" id="calendar" xmlns="http://www.w3.org/2000/svg"><g fill="#030104"><path d="M21.706 6.146c1.116 0 2.02-.898 2.02-2.016V2.02c0-1.119-.903-2.02-2.02-2.02s-2.019.9-2.019 2.02v2.111a2.014 2.014 0 002.019 2.015z"/><path d="M28.882 3.494h-4.066v1.027a3.078 3.078 0 01-3.075 3.076 3.076 3.076 0 01-3.074-3.076V3.494h-8.205v1.027c0 1.695-1.379 3.076-3.076 3.076s-3.075-1.38-3.075-3.076V3.494L.208 3.443v25.678h26.656l2.049-.006-.031-25.621zm-2.02 23.582H2.26V10.672h24.604v16.404h-.002z"/><path d="M7.354 6.146A2.016 2.016 0 009.375 4.13V2.02C9.375.9 8.47 0 7.354 0S5.336.9 5.336 2.02v2.111c0 1.117.901 2.015 2.018 2.015zM10.468 12.873h3.231v2.852h-3.231zM15.692 12.873h3.234v2.852h-3.234zM20.537 12.873h3.231v2.852h-3.231zM10.468 17.609h3.231v2.85h-3.231zM15.692 17.609h3.234v2.85h-3.234zM20.537 17.609h3.231v2.85h-3.231zM10.468 22.439h3.231v2.85h-3.231zM5.336 17.609h3.229v2.85H5.336zM5.336 22.439h3.229v2.85H5.336zM15.692 22.439h3.234v2.85h-3.234zM20.537 22.439h3.231v2.85h-3.231z"/></g></symbol><symbol viewBox="0 0 27.02 27.02" id="home" xmlns="http://www.w3.org/2000/svg"><g fill="#030104"><path d="M3.674 24.876s-.024.604.566.604l6.811-.008.01-5.581s-.096-.92.797-.92h2.826c1.056 0 .991.92.991.92l-.012 5.563h6.667c.749 0 .715-.752.715-.752V14.413l-9.396-8.358-9.975 8.358v10.463z"/><path d="M0 13.635s.847 1.561 2.694 0l11.038-9.338 10.349 9.28c2.138 1.542 2.939 0 2.939 0L13.732 1.54 0 13.635zM23.83 4.275h-2.662l.011 3.228 2.651 2.249z"/></g></symbol><symbol viewBox="0 0 25.625 25.625" id="phone" xmlns="http://www.w3.org/2000/svg"><path d="M22.079 17.835c-1.548-1.324-3.119-2.126-4.648-.804l-.913.799c-.668.58-1.91 3.29-6.712-2.234-4.801-5.517-1.944-6.376-1.275-6.951l.918-.8c1.521-1.325.947-2.993-.15-4.71l-.662-1.04C7.535.382 6.335-.743 4.81.58l-.824.72c-.674.491-2.558 2.087-3.015 5.119-.55 3.638 1.185 7.804 5.16 12.375 3.97 4.573 7.857 6.87 11.539 6.83 3.06-.033 4.908-1.675 5.486-2.272l.827-.721c1.521-1.322.576-2.668-.973-3.995l-.931-.801z" fill="#030104"/></symbol><symbol viewBox="0 0 31.694 31.694" id="protect" xmlns="http://www.w3.org/2000/svg"><path d="M23.112 9.35c-4.473 2.742-7.697 6.205-9.006 7.744l-3.361-2.633c-.089-.064-1.934 1.574-1.885 1.625l6.121 6.223a.225.225 0 00.174.074c.012 0 .031 0 .047-.004a.244.244 0 00.178-.152c.986-2.521 4.242-7.799 8.4-11.627.074-.07.1-.18.059-.275-.001-.001-.665-1.013-.727-.975z"/><path d="M27.126 3.842c-9.268 0-10.836-3.518-10.85-3.551A.466.466 0 0015.85 0h-.008a.475.475 0 00-.428.283c-.011.037-1.613 3.559-10.846 3.559a.461.461 0 00-.462.461v15.764c0 6.453 11.084 11.383 11.553 11.59a.45.45 0 00.188.037c.061 0 .127-.01.186-.037.473-.207 11.555-5.137 11.555-11.59V4.303a.465.465 0 00-.462-.461zM25.038 19.15c0 5.049-8.678 8.912-9.047 9.072a.324.324 0 01-.145.031.325.325 0 01-.146-.031c-.365-.16-9.046-4.023-9.046-9.072V6.811c0-.199.161-.363.362-.363 7.229 0 8.482-2.756 8.494-2.783a.367.367 0 01.334-.223h.006a.36.36 0 01.332.229c.012.025 1.24 2.777 8.494 2.777.201 0 .361.164.361.363l.001 12.339z"/></symbol></svg>