<svg height="35px" viewBox="0 0 60 60" width="30px" xmlns="http://www.w3.org/2000/svg">
 <title>display</title>
<g id="Page-1" fill="none" fill-rule="evenodd"><g id="016---Transparent-Tablet" fill-rule="nonzero"><path id="Shape" d="m53 4v27l-3.18-12.36c-.2549081-1.0684992-1.3155701-1.7386246-2.39-1.51-1.0738676.2407078-1.7496852 1.3059037-1.51 2.38l-.44-1.95c-.1578534-.6760455-.6549955-1.2218742-1.3133957-1.4420204s-1.3838668-.0831154-1.9166043.3620204c-.5814052.5470018-.8222853 1.3652295-.63 2.14l.39 1.76c-.1578068-.681637-.6618216-1.2304164-1.3276029-1.4455149-.6657812-.2150986-1.3956054-.0649442-1.9223971.3955149-.5647341.5568195-.7929386 1.3707489-.6 2.14l.39 1.74c-.2680517-1.0599143-1.3164263-1.726663-2.39-1.52-.5188838.1146894-.9707916.4311661-1.2559699.8795715-.2851783.4484053-.3801784.9918693-.2640301 1.5104285l3.82 14.92h-16.92l3.82-14.92c.1161483-.5185592.0211482-1.0620232-.2640301-1.5104285-.2851783-.4484054-.7370861-.7648821-1.2559699-.8795715-1.0735737-.206663-2.1219483.4600857-2.39 1.52l.39-1.74c.1929386-.7692511-.0352659-1.5831805-.6-2.14-.5267917-.4604591-1.2566159-.6106135-1.9223971-.3955149-.6657813.2150985-1.1697961.7638779-1.3276029 1.4455149l.39-1.76c.1922853-.7747705-.0485948-1.5929982-.63-2.14-.5327375-.4451358-1.2582041-.5821666-1.9166043-.3620204s-1.1555423.7659749-1.3133957 1.4420204l-.44 1.95c.2396852-1.0740963-.4361324-2.1392922-1.51-2.38-1.0744299-.2286246-2.1350919.4415008-2.39 1.51l-3.18 12.36v-27c0-1.65685425 1.34314575-3 3-3h40c1.6568542 0 3 1.34314575 3 3z" fill="#02a9f4"/><path id="Shape" d="m35.081 22.344c-.4789146-.5434355-1.2099815-.7923255-1.921-.654-.5188838.1146894-.9707916.4311661-1.2559699.8795715-.2851783.4484053-.3801784.9918693-.2640301 1.5104285l3.82 14.92h3l-3.82-14.92c-.1348149-.6158296.028616-1.2591766.441-1.736z" fill="#0377bc"/><path id="Shape" d="m50 1h-3c1.6568542 0 3 1.34314575 3 3v15.34l3 11.66v-27c0-1.65685425-1.3431458-3-3-3z" fill="#0377bc"/><path id="Shape" d="m53 31v5c0 1.6568542-1.3431458 3-3 3h-11.54l-3.82-14.92c-.1161483-.5185592-.0211482-1.0620232.2640301-1.5104285.2851783-.4484054.7370861-.7648821 1.2559699-.8795715 1.0735737-.206663 2.1219483.4600857 2.39 1.52l-.39-1.74c-.1929386-.7692511.0352659-1.5831805.6-2.14.5267917-.4604591 1.2566159-.6106135 1.9223971-.3955149.6657813.2150985 1.1697961.7638779 1.3276029 1.4455149l-.39-1.76c-.1922853-.7747705.0485948-1.5929982.63-2.14.5327375-.4451358 1.2582041-.5821666 1.9166043-.3620204s1.1555423.7659749 1.3133957 1.4420204l.44 1.95c-.2396852-1.0740963.4361324-2.1392922 1.51-2.38 1.0744299-.2286246 2.1350919.4415008 2.39 1.51z" fill="#dfc49c"/><path id="Shape" d="m57 59h-9.46c-.9474786.0011729-1.7657675-.6626431-1.96-1.59l-1.72-8.16c-.2679058-1.2468331-1.0102301-2.340596-2.07-3.05l-.02-.02c-1.1407771-.7585978-1.960149-1.9128435-2.3-3.24l-1.01-3.94h11.54c1.6568542 0 3-1.3431458 3-3v-7c.0193586-1.5175306.3494821-3.0149977.97-4.4.3634995-1.1384928 1.5368729-1.8103264 2.7027263-1.5474889 1.1658534.2628374 1.9374468 1.3731569 1.7772737 2.5574889-.14 1.21-1.22 3.09-1.22 6.16 0 5.39.77 3.39.77 7.23.0248756 2.1367073-.2924732 4.2636195-.94 6.3-.1999224.6022501-.1893445 1.2545488.03 1.85.9119889 3.148684 1.5477292 6.3708836 1.9 9.63.0626022.565654-.1187407 1.13119-.4986092 1.5549629s-.9222835.6656452-1.4913908.6650371z" fill="#ffe0b2"/><path id="Shape" d="m58.99 56.78c-.3522708-3.2591164-.9880111-6.481316-1.9-9.63-.2193445-.5954512-.2299224-1.2477499-.03-1.85.6475268-2.0363805.9648756-4.1632927.94-6.3 0-3.84-.77-1.84-.77-7.23 0-3.07 1.08-4.95 1.22-6.16.1287878-.9481839-.3429431-1.8770515-1.1845345-2.3324225-.8415915-.455371-1.877205-.3421022-2.6004655.2844225.5925165.5050351.888149 1.2763158.785 2.048-.14 1.21-1.22 3.09-1.22 6.16 0 5.39.77 3.39.77 7.23.0248756 2.1367073-.2924732 4.2636195-.94 6.3-.1999224.6022501-.1893445 1.2545488.03 1.85.9119889 3.148684 1.5477292 6.3708836 1.9 9.63.0626022.565654-.1187407 1.13119-.4986092 1.5549629s-.9222835.6656452-1.4913908.6650371h3c.5691073.0006081 1.1115223-.2412642 1.4913908-.6650371s.5612114-.9893089.4986092-1.5549629z" fill="#dfc49c"/><path id="Shape" d="m25.36 24.08-3.82 14.92h-11.54c-1.65685425 0-3-1.3431458-3-3v-5l3.18-12.36c.2549081-1.0684992 1.3155701-1.7386246 2.39-1.51 1.0738676.2407078 1.7496852 1.3059037 1.51 2.38l.44-1.95c.1578534-.6760455.6549955-1.2218742 1.3133957-1.4420204s1.3838668-.0831154 1.9166043.3620204c.5814052.5470018.8222853 1.3652295.63 2.14l-.39 1.76c.1578068-.681637.6618216-1.2304164 1.3276029-1.4455149.6657812-.2150986 1.3956054-.0649442 1.9223971.3955149.5647341.5568195.7929386 1.3707489.6 2.14l-.39 1.74c.2680517-1.0599143 1.3164263-1.726663 2.39-1.52.5188838.1146894.9707916.4311661 1.2559699.8795715.2851783.4484053.3801784.9918693.2640301 1.5104285z" fill="#dfc49c"/><path id="Shape" d="m21.54 39-1.01 3.94c-.339851 1.3271565-1.1592229 2.4814022-2.3 3.24l-.02.02c-1.0597699.709404-1.8020942 1.8031669-2.07 3.05l-1.72 8.16c-.1942325.9273569-1.0125214 1.5911729-1.96 1.59h-9.46c-.56910734.0006081-1.11152231-.2412642-1.4913908-.6650371s-.56121137-.9893089-.4986092-1.5549629c.35227084-3.2591164.98801115-6.481316 1.9-9.63.21934454-.5954512.22992235-1.2477499.03-1.85-.64752678-2.0363805-.96487559-4.1632927-.94-6.3 0-3.84.77-1.84.77-7.23 0-3.07-1.08-4.95-1.22-6.16-.16017309-1.184332.6114203-2.2946515 1.7772737-2.5574889 1.1658534-.2628375 2.33922684.4089961 2.7027263 1.5474889.62051794 1.3850023.95064138 2.8824694.97 4.4v7c0 1.6568542 1.34314575 3 3 3z" fill="#ffe0b2"/><path id="Shape" d="m11 8c-.4043959-.00008635-.7689341-.2437275-.923678-.61734544-.15474391-.37361794-.0692299-.80366031.216678-1.08965456l2-2c.2510745-.25995658.6228779-.3642126.9725073-.27269716.3496295.09151544.6226744.3645604.7141899.71418984.0915154.34962943-.0127406.72143285-.2726972.97250732l-2 2c-.1874927.18754937-.4418052.29294336-.707.293z" fill="#f5f5f5"/><path id="Shape" d="m11 13c-.4043959-.0000863-.7689341-.2437275-.923678-.6173454-.15474391-.373618-.0692299-.8036603.216678-1.0896546l7-7c.2510745-.25995658.6228779-.3642126.9725073-.27269716.3496295.09151544.6226744.3645604.7141899.71418984.0915154.34962943-.0127406.72143285-.2726972.97250732l-7 7c-.1874927.1875494-.4418052.2929434-.707.293z" fill="#f5f5f5"/><path id="Shape" d="m3 60h9.461c1.4172586-.0030776 2.6407809-.9934687 2.939-2.379l1.727-8.167c.2107609-1.0011213.8080034-1.8786582 1.662-2.442 1.3448503-.8961854 2.3105195-2.2583097 2.711-3.824l.815-3.188h15.37l.816 3.188c.4050734 1.5743519 1.3800218 2.9423443 2.736 3.839.8437691.5626476 1.4327357 1.4342462 1.64 2.427l1.723 8.166c.2977324 1.3855631 1.5208139 2.3763508 2.938 2.38h9.462c.8529438.0000269 1.6655761-.3630159 2.2346772-.9983404.5691011-.6353244.8408623-1.4828604.7473228-2.3306596-.3612326-3.3383863-1.014399-6.6386835-1.952-9.863-.1402397-.3867455-.1462278-.809437-.017-1.2.6755308-2.1368077 1.0086508-4.3670581.987-6.608.0588762-1.0677031-.0693886-2.1374781-.379-3.161-.3570854-1.3255802-.4889204-2.7017347-.39-4.071.0207742-1.5019918.2890383-2.9902829.794-4.405.1878336-.5265093.3270811-1.0691061.416-1.621.1198621-.870267-.1154778-1.7521608-.653-2.447-.5536323-.7241377-1.3821315-1.1870249-2.2890192-1.278888s-1.8113814.1954808-2.4989808.793888v-18.81c0-2.209139-1.790861-4-4-4h-40c-2.209139 0-4 1.790861-4 4v18.81c-.6874135-.5970812-1.59097918-.8836089-2.49685405-.7917717-.90587486.0918373-1.73355103.5538775-2.28714595 1.2767717-.53468277.6889559-.77063705 1.5636078-.655 2.428.08814233.5584529.22807938 1.1074882.418 1.64.50496173 1.4147171.77322578 2.9030082.794 4.405.09892038 1.3692653-.03291462 2.7454198-.39 4.071-.31096242 1.0232828-.44058144 2.0930628-.383 3.161-.02314922 2.2424564.3089639 4.474432.984 6.613.1292278.390563.12323967.8132545-.017 1.2-.9358701 3.2224919-1.58769412 6.5207616-1.948 9.857-.09382609.847788.1776661 1.6954343.74657999 2.3309536.56891388.6355194 1.38145587.9988204 2.23442001.9990464zm51.715-34.542c.239-.618.49-1.591 1.609-1.449.3479368.044378.6634714.22664.8757553.5058621.212284.2792221.303528.6320053.2532447.9791379-.0786992.4304458-.1920685.8538249-.339 1.266-.5678913 1.6095032-.8675471 3.3013593-.887 5.008-.1065273 1.5653916.0540987 3.1374971.475 4.649.2520267.8364528.3529383 1.7111327.298 2.583.0227854 2.0308474-.2759077 4.0525101-.885 5.99-.2658001.8144188-.2520744 1.6942685.039 2.5.8842727 3.0743191 1.5009052 6.2193794 1.843 9.4.0331699.2802896-.0561176.5612717-.245.771-.1896544.2166932-.4640367.3403842-.752.339h-9.462c-.4720045-.000633-.8792954-.3312181-.977-.793l-1.727-8.167c-.3181634-1.513042-1.2200424-2.8396307-2.51-3.692-.9349042-.6222403-1.6066576-1.5682516-1.886-2.656l-.689-2.692h10.251c2.209139 0 4-1.790861 4-4v-7.1c.00839-1.1833247.2514127-2.3532326.715-3.442zm-17.146-2.038c3.655 16.538 1.845 8.347 2.368 10.715.1190174.5395822.6529178.8805174 1.1925.7615s.8805174-.6529178.7615-1.1925l-2.755-12.453c-.1135632-.419976.0001523-.8687734.3-1.184.2628804-.219766.6205613-.2883114.9460644-.1813022.325503.1070091.5727381.3744206.6539356.7073022 3.088 13.935-.648-2.919 2.532 11.428.1195697.5395822.6539178.8800696 1.1935.7605.5395822-.1195697.8800696-.6539178.7605-1.1935-.302-1.348 1.078 4.882-2.922-13.181-.112367-.4186171.0056154-.865428.31-1.174.2671355-.2127871.6243931-.274528.947449-.163737.3230559.1107909.56723.3787908.647551.710737 3.406 15.354 2.645 11.924 2.759 12.436.0771693.3488699.3345966.6300696.6753115.7376739.3407148.1076043.7129545.0252655.9765-.216.2635455-.2412656.3783579-.604804.3011885-.9536739-.188-.851-2.464-11.129-2.32-10.493-.0574968-.2572764-.0103297-.526857.1311059-.7493273.1414355-.2224703.3655301-.3795692.6228941-.4366727.5465007-.1077361 1.0791356.240252 1.2.784l3.149 12.25v4.861c0 1.1045695-.8954305 2-2 2h-10.763l-3.619-14.138c-.0581014-.2591386-.0107369-.5307457.131648-.7549223.142385-.2241765.3680946-.3825084.627352-.4400777.5303858-.0855853 1.0414703.2372726 1.192.753zm-27.569-21.42h40c1.1045695 0 2 .8954305 2 2v19.111l-1.2-4.686c-.1767751-.7725162-.6520358-1.4437051-1.322-1.867-.6667561-.4314429-1.4786074-.577677-2.254-.406-.3730751.0793544-.7270438.2308612-1.042.446-.377599-.6885626-1.0039521-1.2068868-1.751-1.449-.9841697-.3288498-2.0690886-.105226-2.843.586-.6077679.5503888-.9727296 1.3191454-1.015 2.138-.893265-.1646052-1.811924.1006206-2.48.716-.5874402.5493668-.9393712 1.3048358-.982 2.108-.3843823-.0742878-.7799554-.0685005-1.162.017-.7829269.1736784-1.4637235.6535956-1.8904149 1.3326193s-.5637518 1.5006191-.3805851 2.2813807l3.495 13.672h-14.346l3.508-13.7c.1739241-.7776934.0312795-1.5926304-.3964618-2.2650098-.4277414-.6723793-1.1054272-1.1469441-1.8835382-1.3189902-.3819643-.0835451-.7768785-.0889875-1.161-.016-.0426288-.8031642-.3945598-1.5586332-.982-2.108-.667838-.6158019-1.5867111-.8810895-2.48-.716-.0422699-.8193547-.4076235-1.5885393-1.016-2.139-.7738955-.6905108-1.8583037-.9137265-2.842-.585-.7470031.2420992-1.3735705.7599471-1.752 1.448-.3110111-.2134797-.6609941-.3636666-1.03-.442-1.6019421-.3484267-3.18965788.6435075-3.579 2.236l-1.213 4.713v-19.107c0-1.1045695.8954305-2 2-2zm-2 29.139 3.158-12.285c.1377685-.5284479.6650114-.8566566 1.2-.747.5309535.1235403.8630381.652019.744 1.184-.022.1-2.3 10.392-2.32 10.493-.0771694.3488699.037643.7124083.3011885.9536738.2635455.2412656.6357852.3236043.9765.216.3407149-.1076043.5981421-.3888039.6753115-.7376738.115-.515-.65 2.929 2.761-12.444.0828516-.329486.3273228-.5943688.6491225-.7033199.3217998-.108951.6769043-.0470652.9428775.1643199.3052802.3084708.4237052.7558965.311 1.175-4.065 18.344-2.663 12.017-2.966 13.386-.1195696.5393061.2206939 1.0734304.76 1.193s1.0734304-.2206939 1.193-.76c.263-1.19 1.933-8.725 2.578-11.634.0811975-.3328816.3284326-.6002931.6539356-.7073022.3255031-.1070092.683184-.0384638.9460644.1813022.2996751.3149151.4133909.7633345.3 1.183l-2.734 12.358c-.0771694.3488698.037643.7124082.3011885.9536738s.6357852.3236043.9765.216.5981421-.388804.6753115-.7376738c1.593-7.208-1.141 5.164 2.348-10.619.1489103-.5166686.6601865-.8407774 1.191-.755.5298655.1160504.8706023.633367.768 1.166l-3.627 14.168h-10.763c-1.1045695 0-2-.8954305-2-2zm-4.15 16.361c.29107443-.8057315.30480008-1.6855812.039-2.5-.61149279-1.9404653-.9115489-3.9655909-.889-6-.05429085-.8719865.04729828-1.7466689.3-2.583.42090131-1.5115029.58152727-3.0836084.475-4.649-.01945291-1.7066407-.31910874-3.3984968-.887-5.008-.14919352-.4181082-.26325552-.8479314-.341-1.285-.04717296-.3418674.04547756-.6883154.257-.961.29582345-.386744.78235066-.5766336 1.26194347-.4925314.47959282.0841022.87247788.428207 1.01905653.8925314.56621479 1.2548749.87724599 2.6098151.915 3.986v7.1c0 2.209139 1.790861 4 4 4h10.251l-.689 2.692c-.2839406 1.0977505-.9657497 2.0507863-1.913 2.674-1.2774278.8516788-2.1691409 2.1711125-2.483 3.674l-1.727 8.167c-.0977046.4617819-.5049955.792367-.977.793h-9.462c-.2861271.0017785-.55911489-.1199544-.749-.334-.18888244-.2097283-.27816988-.4907104-.245-.771.34270665-3.1789654.95967154-6.3223412 1.844-9.395z" fill="#000"/></g></g></svg>